<svg viewBox="0 0 290 290" xml:space="preserve" xmlns="http://www.w3.org/2000/svg" xmlns:xlink="http://www.w3.org/1999/xlink"><defs><radialGradient id="c" cx="124.92" cy="144.66" r="138.62" gradientUnits="userSpaceOnUse"><stop stop-color="#1F65AF" offset="0"></stop><stop stop-color="#1A4F9D" offset="1"></stop></radialGradient><radialGradient id="qb" cx="124.92" cy="144.66" r="138.62" gradientTransform="translate(20.263 .303)" gradientUnits="userSpaceOnUse" xlink:href="#c"></radialGradient></defs><path class="logobg" d="m242.42 203.22-98.896 57.099-98.891-57.099V89.03l98.895-57.096 98.892 57.102z" fill="none"></path><path d="M145.54.303 20.26 72.635v144.66l125.28 72.333 125.28-72.332V72.636zm96.873 200.59-96.876 55.931-96.871-55.931V89.033l96.874-55.93 96.873 55.935z" fill="url(#qb)"></path><path d="M108.37 114.9c.119-.006.31-.01.501-.01.782 0 1.564.058 2.33.167.471.008.913.047 1.354.088.361.035.723.072 1.116.072a14.859 14.859 0 0 0 4.764-.861l60.997-35.215-33.894-19.57-73.944 42.693v85.387l17.566 10.142 74.969-43.282a15.121 15.121 0 0 0 3.7-4.612c1.935-8.536 9.625-14.715 18.4-14.732 10.443 0 18.932 8.465 18.967 18.866.021 10.433-8.444 18.939-18.872 18.968a16.342 16.342 0 0 1-2.83-.162 18.632 18.632 0 0 1-1.353-.085c-.362-.032-.723-.068-1.117-.068l-.1-.001c-1.01 0-2.026.117-3.027.347l-65.815 37.999 33.457 19.317 73.948-42.696v-85.385l-17.13-9.891-73.035 42.165a13.954 13.954 0 0 0-2.454 3.445c-1.932 8.539-9.627 14.724-18.401 14.745-10.454 0-18.939-8.466-18.966-18.871a18.793 18.793 0 0 1 5.505-13.389 18.787 18.787 0 0 1 13.364-5.571z" fill="url(#qb)"></path></svg>
