<?xml version="1.0" encoding="UTF-8"?>
<svg version="1.1" viewBox="0 0 715.38 289.33" xmlns="http://www.w3.org/2000/svg">
<path class="logobg" d="m222.16 202.92-98.896 57.099-98.891-57.099v-114.19l98.895-57.096 98.892 57.102z" fill="none"/>
<path d="m125.28 0-125.28 72.332v144.66l125.28 72.333 125.28-72.332v-144.66zm96.873 200.59-96.876 55.931-96.871-55.931v-111.86l96.874-55.93 96.873 55.935z" fill="#1a4f9d"/>
<path d="m88.11 114.6c0.119-6e-3 0.31-0.01 0.501-0.01 0.782 0 1.564 0.058 2.33 0.167 0.471 8e-3 0.913 0.047 1.354 0.088 0.361 0.035 0.723 0.072 1.116 0.072a14.859 14.859 0 0 0 4.764-0.861l60.997-35.215-33.894-19.57-73.944 42.693v85.387l17.566 10.142 74.969-43.282a15.121 15.121 0 0 0 3.7-4.612c1.935-8.536 9.625-14.715 18.4-14.732 10.443 0 18.932 8.465 18.967 18.866 0.021 10.433-8.444 18.939-18.872 18.968a16.342 16.342 0 0 1-2.83-0.162 18.632 18.632 0 0 1-1.353-0.085c-0.362-0.032-0.723-0.068-1.117-0.068l-0.1-1e-3c-1.01 0-2.026 0.117-3.027 0.347l-65.815 37.999 33.457 19.317 73.948-42.696v-85.385l-17.13-9.891-73.035 42.165a13.954 13.954 0 0 0-2.454 3.445c-1.932 8.539-9.627 14.724-18.401 14.745-10.454 0-18.939-8.466-18.966-18.871a18.793 18.793 0 0 1 5.505-13.389 18.787 18.787 0 0 1 13.364-5.571z" fill="#1a4f9d"/>
<g fill="#e2e2e2" stroke-width="1.0336" aria-label="RISE">
<path d="m362.12 172.38c18.06-7.7399 28.578-23.021 28.578-43.86 0-31.158-23.22-50.409-60.332-50.409h-60.133v138.92h32.151v-38.7h29.571l26.792 38.7h34.532zm-3.9692-43.86c0 15.083-9.923 24.212-29.571 24.212h-26.197v-48.424h26.197c19.648 0 29.571 8.9307 29.571 24.212z"/>
<path d="m448.25 217.03v-138.92h-32.151v138.92z"/>
<path d="m526.84 219.42c39.692 0 58.943-19.846 58.943-43.066 0-51.004-80.773-33.341-80.773-58.943 0-8.7322 7.343-15.877 26.395-15.877 12.305 0 25.601 3.5723 38.501 10.915l9.923-24.411c-12.9-8.1369-30.761-12.305-48.226-12.305-39.494 0-58.546 19.648-58.546 43.264 0 51.6 80.773 33.738 80.773 59.736 0 8.5338-7.7399 14.884-26.792 14.884-16.671 0-34.135-5.9538-45.844-14.488l-10.915 24.212c12.305 9.5261 34.532 16.075 56.561 16.075z"/>
<path d="m639.77 159.08h64.5v-25.006h-64.5v-30.166h73.033v-25.8h-104.99v138.92h107.57v-25.8h-75.613z"/>
</g>
</svg>
