<?xml version="1.0" encoding="UTF-8"?>
<svg version="1.1" viewBox="0 0 709.22 289.33" xmlns="http://www.w3.org/2000/svg" xmlns:xlink="http://www.w3.org/1999/xlink">
<defs>
<radialGradient id="c" cx="124.92" cy="144.66" r="138.62" gradientUnits="userSpaceOnUse">
<stop stop-color="#1F65AF" offset="0"/>
<stop stop-color="#1A4F9D" offset="1"/>
</radialGradient>
<radialGradient id="qb" cx="124.92" cy="144.66" r="138.62" gradientTransform="translate(.003)" gradientUnits="userSpaceOnUse" xlink:href="#c"/>
</defs>
<path class="logobg" d="m222.16 202.92-98.896 57.099-98.891-57.099v-114.19l98.895-57.096 98.892 57.102z" fill="none"/>
<path d="m125.28 0-125.28 72.332v144.66l125.28 72.333 125.28-72.332v-144.66zm96.873 200.59-96.876 55.931-96.871-55.931v-111.86l96.874-55.93 96.873 55.935z" fill="url(#qb)"/>
<path d="m88.11 114.6c0.119-6e-3 0.31-0.01 0.501-0.01 0.782 0 1.564 0.058 2.33 0.167 0.471 8e-3 0.913 0.047 1.354 0.088 0.361 0.035 0.723 0.072 1.116 0.072a14.859 14.859 0 0 0 4.764-0.861l60.997-35.215-33.894-19.57-73.944 42.693v85.387l17.566 10.142 74.969-43.282a15.121 15.121 0 0 0 3.7-4.612c1.935-8.536 9.625-14.715 18.4-14.732 10.443 0 18.932 8.465 18.967 18.866 0.021 10.433-8.444 18.939-18.872 18.968a16.342 16.342 0 0 1-2.83-0.162 18.632 18.632 0 0 1-1.353-0.085c-0.362-0.032-0.723-0.068-1.117-0.068l-0.1-1e-3c-1.01 0-2.026 0.117-3.027 0.347l-65.815 37.999 33.457 19.317 73.948-42.696v-85.385l-17.13-9.891-73.035 42.165a13.954 13.954 0 0 0-2.454 3.445c-1.932 8.539-9.627 14.724-18.401 14.745-10.454 0-18.939-8.466-18.966-18.871a18.793 18.793 0 0 1 5.505-13.389 18.787 18.787 0 0 1 13.364-5.571z" fill="url(#qb)"/>
<text x="253.76129" y="217.03432" fill="#e2e2e2" font-size="198.46px" stroke-width="1.0336" xml:space="preserve"><tspan x="253.76129" y="217.03432" fill="#e2e2e2" font-family="sans-serif" font-size="198.46px" font-weight="bold" stroke-width="1.0336">RISE</tspan></text>
</svg>
