<?xml version="1.0" encoding="UTF-8"?>
<svg width="88.948mm" height="76.432mm" version="1.1" viewBox="0 0 88.948 76.432" xmlns="http://www.w3.org/2000/svg">
<g fill="#1a1a1a">
<path d="m44.414 25.975a12.113 12.113 0 0 0-12.113 12.112 12.113 12.113 0 0 0 12.113 12.112 12.113 12.113 0 0 0 12.112-12.112 12.113 12.113 0 0 0-12.112-12.112zm-0.01085 6.1004a6.0778 6.0778 0 0 1 6.0777 6.0777 6.0778 6.0778 0 0 1-6.0777 6.0777 6.0778 6.0778 0 0 1-6.0782-6.0777 6.0778 6.0778 0 0 1 6.0782-6.0777z" stroke-width=".33545"/>
<path d="m44.482 0a38.216 38.216 0 0 0-38.216 38.216 38.216 38.216 0 0 0 38.216 38.216 38.216 38.216 0 0 0 38.216-38.216 38.216 38.216 0 0 0-38.216-38.216zm0.0031 9.818a28.204 28.204 0 0 1 28.204 28.204 28.204 28.204 0 0 1-28.204 28.204 28.204 28.204 0 0 1-28.204-28.204 28.204 28.204 0 0 1 28.204-28.204z" stroke-width=".33888"/>
<rect x="81.456" y="30.966" width="7.4921" height="14.067" stroke-width=".26458"/>
<rect y="30.958" width="9.577" height="14.025" stroke-width=".26458"/>
</g>
</svg>
