<?xml version="1.0" encoding="utf-8"?>
<!-- Generator: Adobe Illustrator 16.0.0, SVG Export Plug-In . SVG Version: 6.00 Build 0)  -->
<!DOCTYPE svg PUBLIC "-//W3C//DTD SVG 1.1//EN" "http://www.w3.org/Graphics/SVG/1.1/DTD/svg11.dtd">
<svg version="1.1" xmlns="http://www.w3.org/2000/svg" xmlns:xlink="http://www.w3.org/1999/xlink" x="0px" y="0px"
	 viewBox="0 0 811.842 186.32" enable-background="new 0 0 811.842 186.32"
	 xml:space="preserve">
<g id="Layer_1">
</g>
<g id="Layer_2">
	<g>
		<g>
			<g>
				<defs>
					<path id="SVGID_5_" d="M80.68,0L0,46.58v93.159l80.678,46.581l80.681-46.58V46.583L80.68,0z M143.065,129.177l-62.387,36.019
						l-62.384-36.019V57.142L80.68,21.125l62.385,36.021V129.177z"/>
				</defs>
				<clipPath id="SVGID_6_">
					<use xlink:href="#SVGID_5_"/>
				</clipPath>

					<radialGradient id="SVGID_7_" cx="163.4414" cy="-148.0547" r="0.4154" gradientTransform="matrix(186.9579 -105.9761 -105.9761 -186.9579 -46166.3711 -10266.0625)" gradientUnits="userSpaceOnUse">
					<stop  offset="0" style="stop-color:#1C64AF"/>
					<stop  offset="1" style="stop-color:#1C4D9E"/>
				</radialGradient>
				<polygon clip-path="url(#SVGID_6_)" fill="url(#SVGID_7_)" points="-79.932,45.309 122.12,-69.224 241.291,141.012
					39.239,255.544 				"/>
			</g>
			<g>
				<defs>
					<path id="SVGID_8_" d="M33.06,65.666v54.988l11.312,6.531l48.278-27.873c0.999-0.845,1.801-1.844,2.383-2.971
						c1.246-5.497,6.198-9.476,11.85-9.487c6.726,0,12.192,5.451,12.215,12.15c0.014,6.718-5.438,12.196-12.154,12.215
						c-0.074,0.003-0.189,0.005-0.306,0.005c-0.503,0-1.013-0.036-1.516-0.109c-0.304-0.005-0.588-0.029-0.871-0.055
						c-0.234-0.021-0.466-0.045-0.72-0.045h-0.064c-0.65,0-1.306,0.075-1.95,0.224l-42.383,24.47l21.545,12.441l47.621-27.496
						V65.666l-11.031-6.37L70.235,86.45c-0.645,0.667-1.175,1.412-1.58,2.219c-1.244,5.499-6.199,9.481-11.851,9.496
						c-6.732,0-12.197-5.452-12.214-12.152c-0.008-3.254,1.251-6.316,3.546-8.623c2.295-2.307,5.351-3.581,8.605-3.588
						c0.076-0.003,0.199-0.006,0.323-0.006c0.503,0,1.007,0.036,1.499,0.107c0.304,0.006,0.589,0.031,0.873,0.057
						c0.232,0.022,0.465,0.046,0.72,0.046c1.03-0.013,2.067-0.201,3.066-0.555l39.282-22.678L80.678,38.171L33.06,65.666z"/>
				</defs>
				<clipPath id="SVGID_9_">
					<use xlink:href="#SVGID_8_"  overflow="visible"/>
				</clipPath>

					<radialGradient id="SVGID_10_" cx="163.4404" cy="-148.0557" r="0.4158" gradientTransform="matrix(186.9571 -105.9756 -105.9756 -186.9571 -46166.1797 -10266.0195)" gradientUnits="userSpaceOnUse">
					<stop  offset="0" style="stop-color:#1C64AF"/>
					<stop  offset="1" style="stop-color:#1C4D9E"/>
				</radialGradient>
				<polygon clip-path="url(#SVGID_9_)" fill="url(#SVGID_10_)" points="-14.121,64.916 105.14,-2.687 175.48,121.405
					56.22,189.008 				"/>
			</g>
		</g>
	</g>
	<g>
		<polygon fill="#1A4C9C" points="434.799,70.126 393.346,70.126 393.346,49.572 428.771,49.572 428.771,38.177 393.346,38.177
			393.346,18.796 433.318,18.796 433.318,7.187 379.275,7.187 379.275,81.733 434.799,81.733 		"/>
		<path fill="#1A4C9C" d="M318.205,60.222h16.711c6.414,0,12.002-1.064,16.76-3.194c4.76-2.129,8.408-5.199,10.945-9.211
			c2.541-4.01,3.809-8.716,3.809-14.112c0-5.467-1.268-10.186-3.809-14.164c-2.537-3.975-6.186-7.028-10.945-9.158
			c-4.758-2.129-10.346-3.195-16.76-3.195h-30.459v74.547h13.748V60.222z M318.205,18.901h16.074c5.992,0,10.539,1.279,13.643,3.834
			c3.104,2.557,4.654,6.213,4.654,10.969c0,4.758-1.551,8.415-4.654,10.97c-3.104,2.557-7.65,3.836-13.643,3.836h-16.074V18.901z"/>
		<path fill="#1A4C9C" d="M513.91,70.339l-8.881-8.52c-5.361,5.893-11.951,8.84-19.779,8.84c-5.074,0-9.623-1.119-13.641-3.355
			c-4.02-2.236-7.158-5.342-9.412-9.318c-2.258-3.974-3.385-8.481-3.385-13.522s1.127-9.55,3.385-13.526
			c2.254-3.977,5.393-7.082,9.412-9.32c4.018-2.236,8.566-3.354,13.641-3.354c7.828,0,14.418,2.912,19.779,8.732l8.881-8.412
			c-3.453-4.048-7.686-7.137-12.689-9.266c-5.008-2.131-10.541-3.195-16.604-3.195c-7.475,0-14.225,1.65-20.252,4.953
			c-6.029,3.3-10.771,7.863-14.225,13.684c-3.455,5.822-5.184,12.391-5.184,19.704c0,7.313,1.709,13.878,5.131,19.7
			c3.418,5.822,8.143,10.383,14.17,13.684c6.029,3.301,12.779,4.953,20.254,4.953c6.063,0,11.615-1.066,16.656-3.197
			C506.207,77.474,510.457,74.386,513.91,70.339z"/>
		<polygon fill="#1A4C9C" points="522.438,18.901 546.598,18.901 546.598,81.733 560.346,81.733 560.346,18.901 585.467,18.901
			585.467,7.187 522.438,7.187 		"/>
		<path fill="#1A4C9C" d="M657.82,48.189c2.713-4.047,4.07-8.876,4.07-14.485c0-5.467-1.268-10.186-3.809-14.164
			c-2.537-3.975-6.186-7.028-10.945-9.158c-4.758-2.129-10.346-3.195-16.762-3.195h-30.457v74.547h13.748V60.009h16.709
			c1.27,0,2.221-0.035,2.855-0.107l15.123,21.832h14.807L646.135,57.24C651.209,55.254,655.104,52.236,657.82,48.189z
			 M643.383,44.727c-3.102,2.594-7.65,3.889-13.643,3.889h-16.074V18.901h16.074c5.992,0,10.541,1.279,13.643,3.834
			c3.104,2.557,4.654,6.213,4.654,10.969C648.037,38.462,646.486,42.137,643.383,44.727z"/>
		<polygon fill="#1A4C9C" points="773.775,70.021 773.775,7.187 760.029,7.187 760.029,81.733 811.842,81.733 811.842,70.021 		"/>
		<path fill="#1A4C9C" d="M704.484,7.187l-31.557,74.547h13.852l6.926-17.252h35.127l7.023,17.252h14.063L718.02,7.187H704.484z
			 M698.064,53.621l13.082-32.589l13.266,32.589H698.064z"/>
		<path fill="#1A4C9C" d="M252.666,119.556c4.023-2.221,8.578-3.33,13.662-3.33c7.836,0,14.438,2.891,19.803,8.668l8.895-8.352
			c-3.459-4.016-7.695-7.082-12.707-9.195c-5.014-2.113-10.557-3.172-16.627-3.172c-7.484,0-14.244,1.639-20.279,4.914
			c-6.037,3.279-10.785,7.809-14.244,13.584c-3.461,5.779-5.189,12.299-5.189,19.557s1.711,13.777,5.137,19.555
			c3.424,5.779,8.154,10.305,14.191,13.582c6.035,3.277,12.795,4.916,20.279,4.916c6.07,0,11.631-1.057,16.68-3.17
			c5.047-2.115,9.301-5.18,12.76-9.197l-8.895-8.457c-5.365,5.852-11.967,8.775-19.803,8.775c-5.084,0-9.639-1.111-13.662-3.33
			c-4.025-2.221-7.166-5.303-9.426-9.25c-2.26-3.945-3.389-8.42-3.389-13.424s1.129-9.479,3.389-13.426
			C245.5,124.858,248.641,121.774,252.666,119.556z"/>
		<path fill="#1A4C9C" d="M368.119,109.411c-6.072-3.275-12.885-4.914-20.438-4.914c-7.555,0-14.369,1.639-20.439,4.914
			c-6.072,3.277-10.836,7.822-14.297,13.637c-3.459,5.814-5.188,12.314-5.188,19.502s1.729,13.689,5.188,19.502
			c3.461,5.814,8.225,10.359,14.297,13.637c6.07,3.277,12.885,4.916,20.439,4.916c7.553,0,14.365-1.639,20.438-4.916
			s10.838-7.805,14.297-13.582s5.189-12.297,5.189-19.557c0-7.258-1.73-13.777-5.189-19.555S374.191,112.688,368.119,109.411z
			 M370.344,155.923c-2.26,3.98-5.365,7.08-9.318,9.301c-3.955,2.221-8.404,3.33-13.344,3.33c-4.941,0-9.393-1.109-13.344-3.33
			c-3.955-2.221-7.061-5.32-9.318-9.301c-2.262-3.982-3.391-8.439-3.391-13.373c0-4.932,1.129-9.389,3.391-13.371
			c2.258-3.98,5.363-7.082,9.318-9.303c3.951-2.219,8.402-3.33,13.344-3.33c4.939,0,9.389,1.111,13.344,3.33
			c3.953,2.221,7.059,5.322,9.318,9.303c2.26,3.982,3.389,8.439,3.389,13.371C373.732,147.483,372.604,151.94,370.344,155.923z"/>
		<polygon fill="#1A4C9C" points="486.664,105.655 472.412,105.655 446.396,153.851 420.006,105.655 405.758,105.655
			405.758,123.187 405.758,179.548 418.861,179.548 418.873,179.548 418.873,131.202 442.553,170.462 449.971,170.462
			473.654,130.567 473.662,134.403 473.662,179.548 473.76,179.548 486.768,179.548 486.768,123.187 486.688,123.187 		"/>
		<path fill="#1A4C9C" d="M558.369,108.821c-4.762-2.111-10.348-3.166-16.762-3.166h-30.459v73.893h13.748v-21.322h16.711
			c6.414,0,12-1.057,16.762-3.168c4.758-2.111,8.406-5.154,10.945-9.131c2.537-3.975,3.807-8.637,3.807-13.986
			c0-5.42-1.27-10.098-3.807-14.041C566.775,113.96,563.127,110.933,558.369,108.821z M554.615,142.813
			c-3.104,2.533-7.65,3.801-13.643,3.801h-16.076v-29.348h16.076c5.992,0,10.539,1.268,13.643,3.801
			c3.102,2.533,4.652,6.158,4.652,10.873S557.717,140.28,554.615,142.813z"/>
		<path fill="#1A4C9C" d="M641.158,146.823c0,14.5-6.24,21.746-18.719,21.746c-12.549,0-18.824-7.246-18.824-21.746v-41.168h-13.748
			v41.695c0,10.699,2.854,18.916,8.566,24.65c5.709,5.736,13.678,8.604,23.9,8.604c10.221,0,18.17-2.867,23.848-8.604
			c5.672-5.734,8.514-13.951,8.514-24.65v-41.695h-13.537V146.823z"/>
		<polygon fill="#1A4C9C" points="673.875,117.587 699.639,117.587 699.639,179.868 713.387,179.868 713.387,117.587
			739.15,117.587 739.15,105.655 673.875,105.655 		"/>
		<polygon fill="#1A4C9C" points="771.555,147.669 807.301,147.669 807.301,136.374 771.555,136.374 771.555,117.481
			810.332,117.481 810.332,105.655 757.807,105.655 757.807,179.548 811.818,179.548 811.818,168.042 771.555,168.042 		"/>
		<path fill="#1A4C9C" d="M269.719,67.685c-0.5,0.336-1.049,0.643-1.646,0.918c-2.137,0.873-5.02,1.41-8.223,1.652
			c-0.006,0-0.012,0.002-0.018,0.002c-0.102,0.008-0.203,0.014-0.305,0.021c-0.676,0.057-1.355,0.084-2.039,0.084
			c-4.639,0-8.797-1.152-12.469-3.457c-3.279-2.057-5.389-4.828-7.271-8.314l-12.555,2.621c0.342,0.832,0.717,1.652,1.137,2.457
			c0.99,1.904,1.781,3.707,3.014,5.393c2.648,3.629,5.855,6.705,9.617,9.027c5.51,3.402,11.68,5.102,18.512,5.102
			c5.541,0,12.225-0.926,17.221-3.814c3.738-2.16,7.49-5.582,8.568-6.961c1.076-1.377,1.246-1.682,1.738-2.385
			c1.074-1.535,2.834-6.471,2.834-10.189c0-0.014,0-0.029,0-0.045c0-0.014,0-0.029,0-0.043c0-4.864-1.287-8.726-3.861-11.579
			c-2.574-2.857-5.658-4.955-9.248-6.293c-3.59-1.34-8.615-2.683-14.418-4.021c-4.135-0.988-6.766-1.869-9.16-2.645
			c-2.393-0.777-4.367-1.85-5.928-3.225c-0.963-0.85-1.625-1.84-1.994-2.969c-0.152-0.584-0.236-1.201-0.236-1.861
			c0-3.029,1.361-5.461,4.08-7.297c0.502-0.336,1.051-0.643,1.648-0.918c2.137-0.873,4.695-1.432,7.9-1.674
			c0.713,0,0.787,0.006,1.506,0.02c4.445,0.09,8.146,1.648,11.779,3.496c2.945,1.5,5.627,3.576,8.039,6.232l9.314-8.23
			c-3.469-4.116-7.754-7.289-12.857-9.523c-4.701-2.055-9.902-3.244-15.563-3.512c-0.053-0.004-0.836-0.049-0.98-0.045
			c-6.041,0.135-10.873,1.117-15.139,2.945c-4.129,1.77-7.32,4.091-9.582,6.965c-0.268,0.32-0.523,0.648-0.754,0.984
			c-2.285,3.311-3.426,7.014-3.426,11.104c0,0.016,0,0.029,0,0.045s0,0.029,0,0.043c0,4.865,1.285,8.727,3.861,11.58
			c2.572,2.858,5.658,4.956,9.248,6.294c3.59,1.34,7.65,2.682,13.453,4.02c4.135,0.988,7.729,1.869,10.125,2.645
			c2.393,0.777,4.367,1.85,5.928,3.225c0.961,0.85,1.625,1.839,1.994,2.97c0.15,0.584,0.234,1.199,0.234,1.859
			C273.799,63.417,272.439,65.849,269.719,67.685z"/>
	</g>
</g>
</svg>
